<svg width="268" height="43" viewBox="0 0 268 43" fill="none" xmlns="http://www.w3.org/2000/svg">
<path d="M110.916 0H113.878V2.99722H110.916V0Z" fill="#FBFBFB"/>
<path d="M116.839 2.99722H119.8V5.99443H116.839V2.99722Z" fill="#FBFBFB"/>
<path d="M119.8 5.99443H122.761V8.99165H119.8V5.99443Z" fill="#FBFBFB"/>
<path d="M122.761 8.99165H125.722V11.9889H122.761V8.99165Z" fill="#FBFBFB"/>
<path d="M125.722 11.9889H128.684V14.9861H125.722V11.9889Z" fill="#FBFBFB"/>
<path d="M125.722 14.9861H128.684V17.9833H125.722V14.9861Z" fill="#FBFBFB"/>
<path d="M125.722 17.9833H128.684V20.9805H125.722V17.9833Z" fill="#FBFBFB"/>
<path d="M125.722 20.9805H128.684V18.1295H125.722V20.9805Z" fill="#FBFBFB"/>
<path d="M104.994 0H107.955V2.99722H104.994V0Z" fill="#FBFBFB"/>
<path d="M107.955 0H110.916V2.99722H107.955V0Z" fill="#FBFBFB"/>
<path d="M113.878 0H116.839V2.99722H113.878V0Z" fill="#FBFBFB"/>
<path d="M14.8061 0H17.7674V2.99722H14.8061V0Z" fill="#FBFBFB"/>
<path d="M8.88369 2.99722H11.8449V5.99443H8.88369V2.99722Z" fill="#FBFBFB"/>
<path d="M5.92246 5.99443H8.88369V8.99165H5.92246V5.99443Z" fill="#FBFBFB"/>
<path d="M2.96123 8.99165H5.92246V11.9889H5.69544H2.96123V8.99165Z" fill="#FBFBFB"/>
<path d="M0 11.9889H2.96123V14.9861H0V11.9889Z" fill="#FBFBFB"/>
<path d="M0 14.9861H2.96123V17.9833H0V14.9861Z" fill="#FBFBFB"/>
<path d="M0 17.9833H2.96123V20.9805H0V17.9833Z" fill="#FBFBFB"/>
<path d="M0 20.9805H2.96123V18.1295H0V20.9805Z" fill="#FBFBFB"/>
<path d="M11.8449 0H14.8061V2.99722H11.8449V0Z" fill="#FBFBFB"/>
<path d="M17.7674 0H20.7286V2.99722H17.7674V0Z" fill="#FBFBFB"/>
<path d="M20.7286 0H104.994V2.99722H20.7286V0Z" fill="#FBFBFB"/>
<path d="M0 18.1295H2.96123V21.1267H0V18.1295Z" fill="#FBFBFB"/>
<path d="M0 21.1267H2.96123V24.1239H0V21.1267Z" fill="#FBFBFB"/>
<path d="M0 24.1239H2.96123V27.1212H0V24.1239Z" fill="#FBFBFB"/>
<path d="M0 27.1212H2.96123V30.1184H0V27.1212Z" fill="#FBFBFB"/>
<path d="M2.96123 30.1184H5.92246V33.1156H2.96123V30.1184Z" fill="#FBFBFB"/>
<path d="M5.92246 33.1156H8.88369V36.1128H5.92246V33.1156Z" fill="#FBFBFB"/>
<path d="M8.88369 36.1128H11.8449V39.11H8.88369V36.1128Z" fill="#FBFBFB"/>
<path d="M11.8449 39.11H14.8061V42.1072H11.8449V39.11Z" fill="#FBFBFB"/>
<path d="M14.8061 39.11H17.7674V42.1072H14.8061V39.11Z" fill="#FBFBFB"/>
<path d="M125.722 18.1295H128.684V21.1267H125.722V18.1295Z" fill="#FBFBFB"/>
<path d="M125.722 21.1267H128.684V24.1239H125.722V21.1267Z" fill="#FBFBFB"/>
<path d="M125.722 24.1239H128.684V27.1212H125.722V24.1239Z" fill="#FBFBFB"/>
<path d="M125.722 27.1212H128.684V30.1184H125.722V27.1212Z" fill="#FBFBFB"/>
<path d="M122.761 30.1184H125.722V33.1156H122.761V30.1184Z" fill="#FBFBFB"/>
<path d="M119.8 33.1156H122.761V36.1128H119.8V33.1156Z" fill="#FBFBFB"/>
<path d="M116.839 33.1156V36.0948L119.8 36.1128V39.11H116.839V33.1156Z" fill="#FBFBFB"/>
<path d="M113.878 39.11H116.839V42.1072H113.878V39.11Z" fill="#FBFBFB"/>
<path d="M110.916 39.11H113.878V42.1072H110.916V39.11Z" fill="#FBFBFB"/>
<path d="M17.7674 39.11V42.1072H20.8383V39.11H17.7674Z" fill="#FBFBFB"/>
<path d="M113.878 2.99722H110.916H107.955H104.994H20.7286H17.7674H14.8061H11.8449V5.99443V8.99165H119.8V5.99443H116.839V2.99722H113.878Z" fill="#FBFBFB"/>
<path d="M2.96123 11.9889V14.9861V17.9833V20.9805V18.1295V21.1267V24.1239V27.1212V30.1184H5.92246V33.1156H8.88369V27.1212V11.9889H5.92246H5.69544H2.96123Z" fill="#C8C8C7"/>
<path d="M8.88369 33.1156V36.1128H11.8449V39.11H14.8061H17.7674H20.8383H103.678H105.103H105.213H106.639H107.955H108.174H110.916H113.878H116.839V33.1156H17.7674H14.445H8.88369Z" fill="#C8C8C7"/>
<path d="M8.88369 27.1212V33.1156H14.445V27.1212H8.88369Z" fill="#C8C8C7"/>
<path d="M122.761 8.99165H119.8H11.8449H8.88369V11.9889V27.1212H14.445V33.1156H17.7674H116.839V36.0948L119.8 36.1128V33.1156H122.761V30.1184H125.722V27.1212V24.1239V21.1267V18.1295V20.9805V17.9833V14.9861V11.9889H122.761V8.99165Z" fill="#E2E2E1"/>
<path fill-rule="evenodd" clip-rule="evenodd" d="M103.678 39.11H20.8383V42.1072H103.678V39.11ZM105.103 39.11V42.1072H105.213V39.11H105.103ZM107.955 42.1072H106.639V39.11H107.955V42.1072ZM108.174 42.1072H110.916V39.11H108.174V42.1072Z" fill="#FBFBFB"/>
<path d="M106.639 39.11H105.213V42.1072H106.639V39.11Z" fill="#FBFBFB"/>
<path d="M105.103 39.11H103.678V42.1072H105.103V39.11Z" fill="#FBFBFB"/>
<path d="M108.174 39.11H107.955V42.1072H108.174V39.11Z" fill="#FBFBFB"/>
<path d="M8.88369 8.99165H5.92246V11.9889H8.88369V8.99165Z" fill="#C8C8C7"/>
<path d="M11.8449 5.99443H8.88369V8.99165H11.8449V5.99443Z" fill="#FBFBFB"/>
<path d="M249.916 0H252.878V2.99722H249.916V0Z" fill="black"/>
<path d="M255.839 2.99722H258.8V5.99443H255.839V2.99722Z" fill="black"/>
<path d="M258.8 5.99443H261.761V8.99165H258.8V5.99443Z" fill="black"/>
<path d="M261.761 8.99165H264.722V11.9889H261.761V8.99165Z" fill="black"/>
<path d="M264.722 11.9889H267.684V14.9861H264.722V11.9889Z" fill="black"/>
<path d="M264.722 14.9861H267.684V17.9833H264.722V14.9861Z" fill="black"/>
<path d="M264.722 17.9833H267.684V20.9805H264.722V17.9833Z" fill="black"/>
<path d="M264.722 20.9805H267.684V18.1295H264.722V20.9805Z" fill="black"/>
<path d="M243.994 0H246.955V2.99722H243.994V0Z" fill="black"/>
<path d="M246.955 0H249.916V2.99722H246.955V0Z" fill="black"/>
<path d="M252.878 0H255.839V2.99722H252.878V0Z" fill="black"/>
<path d="M153.806 0H156.767V2.99722H153.806V0Z" fill="black"/>
<path d="M147.884 2.99722H150.845V5.99443H147.884V2.99722Z" fill="black"/>
<path d="M144.922 5.99443H147.884V8.99165H144.922V5.99443Z" fill="black"/>
<path d="M141.961 8.99165H144.922V11.9889H144.695H141.961V8.99165Z" fill="black"/>
<path d="M139 11.9889H141.961V14.9861H139V11.9889Z" fill="black"/>
<path d="M139 14.9861H141.961V17.9833H139V14.9861Z" fill="black"/>
<path d="M139 17.9833H141.961V20.9805H139V17.9833Z" fill="black"/>
<path d="M139 20.9805H141.961V18.1295H139V20.9805Z" fill="black"/>
<path d="M150.845 0H153.806V2.99722H150.845V0Z" fill="black"/>
<path d="M156.767 0H159.729V2.99722H156.767V0Z" fill="black"/>
<path d="M159.729 0H243.994V2.99722H159.729V0Z" fill="black"/>
<path d="M139 18.1295H141.961V21.1267H139V18.1295Z" fill="black"/>
<path d="M139 21.1267H141.961V24.1239H139V21.1267Z" fill="black"/>
<path d="M139 24.1239H141.961V27.1212H139V24.1239Z" fill="black"/>
<path d="M139 27.1212H141.961V30.1184H139V27.1212Z" fill="black"/>
<path d="M141.961 30.1184H144.922V33.1156H141.961V30.1184Z" fill="black"/>
<path d="M144.922 33.1156H147.884V36.1128H144.922V33.1156Z" fill="black"/>
<path d="M147.884 36.1128H150.845V39.11H147.884V36.1128Z" fill="black"/>
<path d="M150.845 39.11H153.806V42.1072H150.845V39.11Z" fill="black"/>
<path d="M153.806 39.11H156.767V42.1072H153.806V39.11Z" fill="black"/>
<path d="M264.722 18.1295H267.684V21.1267H264.722V18.1295Z" fill="black"/>
<path d="M264.722 21.1267H267.684V24.1239H264.722V21.1267Z" fill="black"/>
<path d="M264.722 24.1239H267.684V27.1212H264.722V24.1239Z" fill="black"/>
<path d="M264.722 27.1212H267.684V30.1184H264.722V27.1212Z" fill="black"/>
<path d="M261.761 30.1184H264.722V33.1156H261.761V30.1184Z" fill="black"/>
<path d="M258.8 33.1156H261.761V36.1128H258.8V33.1156Z" fill="black"/>
<path d="M255.839 33.1156V36.0948L258.8 36.1128V39.11H255.839V33.1156Z" fill="black"/>
<path d="M252.878 39.11H255.839V42.1072H252.878V39.11Z" fill="black"/>
<path d="M249.916 39.11H252.878V42.1072H249.916V39.11Z" fill="black"/>
<path d="M156.767 39.11V42.1072H159.838V39.11H156.767Z" fill="black"/>
<path d="M252.878 2.99722H249.916H246.955H243.994H159.729H156.767H153.806H150.845V5.99443V8.99165H258.8V5.99443H255.839V2.99722H252.878Z" fill="#FFFFC0"/>
<path d="M141.961 11.9889V14.9861V17.9833V20.9805V18.1295V21.1267V24.1239V27.1212V30.1184H144.922V33.1156H147.884V27.1212V11.9889H144.922H144.695H141.961Z" fill="#E2DE41"/>
<path d="M147.884 33.1156V36.1128H150.845V39.11H153.806H156.767H159.838H242.678H244.103H244.213H245.639H246.955H247.174H249.916H252.878H255.839V33.1156H156.767H153.445H147.884Z" fill="#E2DE41"/>
<path d="M147.884 27.1212V33.1156H153.445V27.1212H147.884Z" fill="#E2DE41"/>
<path d="M261.761 8.99165H258.8H150.845H147.884V11.9889V27.1212H153.445V33.1156H156.767H255.839V36.0948L258.8 36.1128V33.1156H261.761V30.1184H264.722V27.1212V24.1239V21.1267V18.1295V20.9805V17.9833V14.9861V11.9889H261.761V8.99165Z" fill="#FFFE84"/>
<path fill-rule="evenodd" clip-rule="evenodd" d="M242.678 39.11H159.838V42.1072H242.678V39.11ZM244.103 39.11V42.1072H244.213V39.11H244.103ZM246.955 42.1072H245.639V39.11H246.955V42.1072ZM247.174 42.1072H249.916V39.11H247.174V42.1072Z" fill="black"/>
<path d="M245.639 39.11H244.213V42.1072H245.639V39.11Z" fill="black"/>
<path d="M244.103 39.11H242.678V42.1072H244.103V39.11Z" fill="black"/>
<path d="M247.174 39.11H246.955V42.1072H247.174V39.11Z" fill="black"/>
<path d="M147.884 8.99165H144.922V11.9889H147.884V8.99165Z" fill="#E2DE41"/>
<path d="M150.845 5.99443H147.884V8.99165H150.845V5.99443Z" fill="#FFFFC0"/>
</svg>
