<svg width="187" height="74" viewBox="0 0 187 74" fill="none" xmlns="http://www.w3.org/2000/svg">
<g filter="url(#filter0_f_102_2600)">
<path d="M150.919 20.6245H153.268V23.002H150.919V20.6245Z" fill="black"/>
<path d="M155.617 23.002H157.966V25.3794H155.617V23.002Z" fill="black"/>
<path d="M157.966 25.3794H160.315V27.7569H157.966V25.3794Z" fill="black"/>
<path d="M160.315 27.7569H162.664V30.1343H160.315V27.7569Z" fill="black"/>
<path d="M162.664 30.1343H165.012V32.5118H162.664V30.1343Z" fill="black"/>
<path d="M162.664 32.5118H165.012V34.8892H162.664V32.5118Z" fill="black"/>
<path d="M162.664 34.8892H165.012V37.2667H162.664V34.8892Z" fill="black"/>
<path d="M162.664 37.2667H165.012V35.0052H162.664V37.2667Z" fill="black"/>
<path d="M146.221 20.6245H148.57V23.002H146.221V20.6245Z" fill="black"/>
<path d="M148.57 20.6245H150.919V23.002H148.57V20.6245Z" fill="black"/>
<path d="M153.268 20.6245H155.617V23.002H153.268V20.6245Z" fill="black"/>
<path d="M34.7343 20.6245H37.0832V23.002H34.7343V20.6245Z" fill="black"/>
<path d="M30.0365 23.002H32.3854V25.3794H30.0365V23.002Z" fill="black"/>
<path d="M27.6876 25.3794H30.0365V27.7569H27.6876V25.3794Z" fill="black"/>
<path d="M25.3386 27.7569H27.6876V30.1343H27.5075H25.3386V27.7569Z" fill="black"/>
<path d="M22.9897 30.1343H25.3386V32.5118H22.9897V30.1343Z" fill="black"/>
<path d="M22.9897 32.5118H25.3386V34.8892H22.9897V32.5118Z" fill="black"/>
<path d="M22.9897 34.8892H25.3386V37.2667H22.9897V34.8892Z" fill="black"/>
<path d="M22.9897 37.2667H25.3386V35.0052H22.9897V37.2667Z" fill="black"/>
<path d="M32.3854 20.6245H34.7343V23.002H32.3854V20.6245Z" fill="black"/>
<path d="M37.0832 20.6245H39.4321V23.002H37.0832V20.6245Z" fill="black"/>
<path d="M39.4321 20.6245H146.221V23.002H39.4321V20.6245Z" fill="black"/>
<path d="M22.9897 35.0052H25.3386V37.3826H22.9897V35.0052Z" fill="black"/>
<path d="M22.9897 37.3826H25.3386V39.7601H22.9897V37.3826Z" fill="black"/>
<path d="M22.9897 39.7601H25.3386V42.1375H22.9897V39.7601Z" fill="black"/>
<path d="M22.9897 42.1375H25.3386V44.515H22.9897V42.1375Z" fill="black"/>
<path d="M25.3386 44.515H27.6876V46.8924H25.3386V44.515Z" fill="black"/>
<path d="M27.6876 46.8924H30.0365V49.2699H27.6876V46.8924Z" fill="black"/>
<path d="M30.0365 49.2699H32.3854V51.6473H30.0365V49.2699Z" fill="black"/>
<path d="M32.3854 51.6473H34.7343V54.0248H32.3854V51.6473Z" fill="black"/>
<path d="M34.7343 51.6473H37.0832V54.0248H34.7343V51.6473Z" fill="black"/>
<path d="M162.664 35.0052H165.012V37.3826H162.664V35.0052Z" fill="black"/>
<path d="M162.664 37.3826H165.012V39.7601H162.664V37.3826Z" fill="black"/>
<path d="M162.664 39.7601H165.012V42.1375H162.664V39.7601Z" fill="black"/>
<path d="M162.664 42.1375H165.012V44.515H162.664V42.1375Z" fill="black"/>
<path d="M160.315 44.515H162.664V46.8924H160.315V44.515Z" fill="black"/>
<path d="M157.966 46.8924H160.315V49.2699H157.966V46.8924Z" fill="black"/>
<path d="M155.617 46.8924L157.966 49.2699V51.6473H155.617V46.8924Z" fill="black"/>
<path d="M153.268 51.6473H155.617V54.0248H153.268V51.6473Z" fill="black"/>
<path d="M150.919 51.6473H153.268V54.0248H150.919V51.6473Z" fill="black"/>
<path d="M37.0832 51.6473V54.0248H39.5191V51.6473H37.0832Z" fill="black"/>
<path d="M153.268 23.002H150.919H148.57H146.221H39.4321H37.0832H34.7343H32.3854V25.3794V27.7569H157.966V25.3794H155.617V23.002H153.268Z" fill="#6C87FF"/>
<path d="M25.3386 30.1343V32.5118V34.8892V37.2667V35.0052V37.3826V39.7601V42.1375V44.515H27.6876V46.8924H30.0365V42.1375V30.1343H27.6876H27.5075H25.3386Z" fill="#0B2BAF"/>
<path d="M30.0365 27.7569H27.6876V30.1343H30.0365V27.7569Z" fill="white"/>
<path d="M32.3854 25.3794H30.0365V27.7569H32.3854V25.3794Z" fill="white"/>
<path d="M30.0365 46.8924V49.2699H32.3854V51.6473H34.7343H37.0832H39.5191H145.177H146.308H146.395H147.526H148.57H148.744H150.919H153.268H155.617V46.8924H37.0832H34.4478H30.0365Z" fill="#0B2BAF"/>
<path d="M30.0365 42.1375V46.8924H34.4478V42.1375H30.0365Z" fill="#0B2BAF"/>
<path d="M160.315 27.7569H157.966H32.3854H30.0365V30.1343V42.1375H34.4478V46.8924H37.0832H155.617L157.966 49.2699V46.8924H160.315V44.515H162.664V42.1375V39.7601V37.3826V35.0052V37.2667V34.8892V32.5118V30.1343H160.315V27.7569Z" fill="#0030FF"/>
<path fill-rule="evenodd" clip-rule="evenodd" d="M145.177 51.6473H39.5191V54.0248H145.177V51.6473ZM146.308 51.6473V54.0248H146.395V51.6473H146.308ZM148.57 54.0248H147.526V51.6473H148.57V54.0248ZM148.744 54.0248H150.919V51.6473H148.744V54.0248Z" fill="black"/>
<path d="M147.526 51.6473H146.395V54.0248H147.526V51.6473Z" fill="black"/>
<path d="M146.308 51.6473H145.177V54.0248H146.308V51.6473Z" fill="black"/>
<path d="M148.744 51.6473H148.57V54.0248H148.744V51.6473Z" fill="black"/>
</g>
<path d="M168.443 8H171.536V11.1304H168.443V8Z" fill="black"/>
<path d="M174.629 11.1304H177.722V14.2607H174.629V11.1304Z" fill="black"/>
<path d="M177.722 14.2607H180.814V17.3911H177.722V14.2607Z" fill="black"/>
<path d="M180.814 17.3911H183.907V20.5215H180.814V17.3911Z" fill="black"/>
<path d="M183.907 20.5215H187V23.6518H183.907V20.5215Z" fill="black"/>
<path d="M183.907 23.6518H187V26.7822H183.907V23.6518Z" fill="black"/>
<path d="M183.907 26.7822H187V29.9126H183.907V26.7822Z" fill="black"/>
<path d="M183.907 29.9126H187V26.9349H183.907V29.9126Z" fill="black"/>
<path d="M162.258 8H165.351V11.1304H162.258V8Z" fill="black"/>
<path d="M165.351 8H168.443V11.1304H165.351V8Z" fill="black"/>
<path d="M171.536 8H174.629V11.1304H171.536V8Z" fill="black"/>
<path d="M15.4639 8H18.5567V11.1304H15.4639V8Z" fill="black"/>
<path d="M9.27834 11.1304H12.3711V14.2607H9.27834V11.1304Z" fill="black"/>
<path d="M6.18556 14.2607H9.27834V17.3911H6.18556V14.2607Z" fill="black"/>
<path d="M3.09278 17.3911H6.18556V20.5215H5.94845H3.09278V17.3911Z" fill="black"/>
<path d="M0 20.5215H3.09278V23.6518H0V20.5215Z" fill="black"/>
<path d="M0 23.6518H3.09278V26.7822H0V23.6518Z" fill="black"/>
<path d="M0 26.7822H3.09278V29.9126H0V26.7822Z" fill="black"/>
<path d="M0 29.9126H3.09278V26.9349H0V29.9126Z" fill="black"/>
<path d="M12.3711 8H15.4639V11.1304H12.3711V8Z" fill="black"/>
<path d="M18.5567 8H21.6495V11.1304H18.5567V8Z" fill="black"/>
<path d="M21.6495 8H162.258V11.1304H21.6495V8Z" fill="black"/>
<path d="M0 26.9349H3.09278V30.0653H0V26.9349Z" fill="black"/>
<path d="M0 30.0653H3.09278V33.1956H0V30.0653Z" fill="black"/>
<path d="M0 33.1956H3.09278V36.326H0V33.1956Z" fill="black"/>
<path d="M0 36.326H3.09278V39.4564H0V36.326Z" fill="black"/>
<path d="M3.09278 39.4564H6.18556V42.5867H3.09278V39.4564Z" fill="black"/>
<path d="M6.18556 42.5867H9.27834V45.7171H6.18556V42.5867Z" fill="black"/>
<path d="M9.27834 45.7171H12.3711V48.8475H9.27834V45.7171Z" fill="black"/>
<path d="M12.3711 48.8475H15.4639V51.9778H12.3711V48.8475Z" fill="black"/>
<path d="M15.4639 48.8475H18.5567V51.9778H15.4639V48.8475Z" fill="black"/>
<path d="M183.907 26.9349H187V30.0653H183.907V26.9349Z" fill="black"/>
<path d="M183.907 30.0653H187V33.1956H183.907V30.0653Z" fill="black"/>
<path d="M183.907 33.1956H187V36.326H183.907V33.1956Z" fill="black"/>
<path d="M183.907 36.326H187V39.4564H183.907V36.326Z" fill="black"/>
<path d="M180.814 39.4564H183.907V42.5867H180.814V39.4564Z" fill="black"/>
<path d="M177.722 42.5867H180.814V45.7171H177.722V42.5867Z" fill="black"/>
<path d="M174.629 42.5867L177.722 45.7171V48.8475H174.629V42.5867Z" fill="black"/>
<path d="M171.536 48.8475H174.629V51.9778H171.536V48.8475Z" fill="black"/>
<path d="M168.443 48.8475H171.536V51.9778H168.443V48.8475Z" fill="black"/>
<path d="M18.5567 48.8475V51.9778H21.764V48.8475H18.5567Z" fill="black"/>
<path d="M171.536 11.1304H168.443H165.351H162.258H21.6495H18.5567H15.4639H12.3711V14.2607V17.3911H177.722V14.2607H174.629V11.1304H171.536Z" fill="#6C87FF"/>
<path d="M3.09278 20.5215V23.6518V26.7822V29.9126V26.9349V30.0653V33.1956V36.326V39.4564H6.18556V42.5867H9.27834V36.326V20.5215H6.18556H5.94845H3.09278Z" fill="#0B2BAF"/>
<path d="M9.27834 17.3911H6.18556V20.5215H9.27834V17.3911Z" fill="white"/>
<path d="M12.3711 14.2607H9.27834V17.3911H12.3711V14.2607Z" fill="white"/>
<path d="M9.27834 42.5867V45.7171H12.3711V48.8475H15.4639H18.5567H21.764H160.883H162.372H162.487H163.976H165.351H165.58H168.443H171.536H174.629V42.5867H18.5567H15.0867H9.27834Z" fill="#0B2BAF"/>
<path d="M9.27834 36.326V42.5867H15.0867V36.326H9.27834Z" fill="#0B2BAF"/>
<path d="M180.814 17.3911H177.722H12.3711H9.27834V20.5215V36.326H15.0867V42.5867H18.5567H174.629L177.722 45.7171V42.5867H180.814V39.4564H183.907V36.326V33.1956V30.0653V26.9349V29.9126V26.7822V23.6518V20.5215H180.814V17.3911Z" fill="#0030FF"/>
<path fill-rule="evenodd" clip-rule="evenodd" d="M160.883 48.8475H21.764V51.9778H160.883V48.8475ZM162.372 48.8475V51.9778H162.487V48.8475H162.372ZM165.351 51.9778H163.976V48.8475H165.351V51.9778ZM165.58 51.9778H168.443V48.8475H165.58V51.9778Z" fill="black"/>
<path d="M163.976 48.8475H162.487V51.9778H163.976V48.8475Z" fill="black"/>
<path d="M162.372 48.8475H160.883V51.9778H162.372V48.8475Z" fill="black"/>
<path d="M165.58 48.8475H165.351V51.9778H165.58V48.8475Z" fill="black"/>
<mask id="mask0_102_2600" style="mask-type:alpha" maskUnits="userSpaceOnUse" x="-24" y="-38" width="260" height="152">
<rect x="184.633" y="6.422" width="18.1477" height="18.1477" fill="#D9D9D9"/>
<rect width="11.0464" height="11.8354" transform="matrix(-1 0 0 1 1.57812 13.5232)" fill="#D9D9D9"/>
<rect width="17.3587" height="14.9916" transform="matrix(-1 0 0 1 86.0044 68.7554)" fill="#D9D9D9"/>
<rect x="137.291" y="67.1772" width="10.2574" height="9.46836" fill="#D9D9D9"/>
<rect width="25.2489" height="21.3038" transform="matrix(-1 0 0 1 60.7554 53.7638)" fill="#D9D9D9"/>
<rect width="17.3587" height="14.9916" transform="matrix(-1 0 0 1 96.2617 68.7554)" fill="#D9D9D9"/>
<rect x="127.034" y="66.3882" width="10.2574" height="9.46836" fill="#D9D9D9"/>
<rect width="17.3587" height="15.7806" transform="matrix(-1 0 0 1 111.253 54.5527)" fill="#D9D9D9"/>
<rect width="12.6245" height="11.8354" transform="matrix(-1 0 0 1 111.253 71.9114)" fill="#D9D9D9"/>
<rect x="127.034" y="70.3334" width="7.10127" height="7.10127" fill="#D9D9D9"/>
<rect width="12.6245" height="11.8354" transform="matrix(-1 0 0 1 15.7808 -10.1477)" fill="#D9D9D9"/>
<rect x="28.4053" y="-0.679321" width="6.31224" height="5.52321" fill="#D9D9D9"/>
<rect width="9.46836" height="8.67933" transform="matrix(-1 0 0 1 15.7808 3.26587)" fill="#D9D9D9"/>
<rect x="33.1392" y="-3.04639" width="6.31224" height="5.52321" fill="#D9D9D9"/>
<rect width="10.2574" height="9.46836" transform="matrix(-1 0 0 1 7.89014 -1.46826)" fill="#D9D9D9"/>
<rect x="32.3501" y="1.68774" width="6.31224" height="5.52321" fill="#D9D9D9"/>
<rect width="10.2574" height="8.67933" transform="matrix(-1 0 0 1 10.2573 7.21106)" fill="#D9D9D9"/>
<rect width="23.6709" height="18.9367" transform="matrix(-1 0 0 1 201.992 45.8734)" fill="#D9D9D9"/>
<rect width="23.6709" height="19.7257" transform="matrix(-1 0 0 1 205.937 -6.20251)" fill="#D9D9D9"/>
<rect width="22.8819" height="18.9367" transform="matrix(-1 0 0 1 205.937 48.2406)" fill="#D9D9D9"/>
</mask>
<g mask="url(#mask0_102_2600)">
<path d="M168.443 8H171.536V11.1304H168.443V8Z" fill="black"/>
<path d="M174.629 11.1304H177.722V14.2607H174.629V11.1304Z" fill="black"/>
<path d="M177.722 14.2607H180.814V17.3911H177.722V14.2607Z" fill="black"/>
<path d="M180.814 17.3911H183.907V20.5215H180.814V17.3911Z" fill="black"/>
<path d="M183.907 20.5215H187V23.6518H183.907V20.5215Z" fill="black"/>
<path d="M183.907 23.6518H187V26.7822H183.907V23.6518Z" fill="black"/>
<path d="M183.907 26.7822H187V29.9126H183.907V26.7822Z" fill="black"/>
<path d="M183.907 29.9126H187V26.9349H183.907V29.9126Z" fill="black"/>
<path d="M162.258 8H165.351V11.1304H162.258V8Z" fill="black"/>
<path d="M165.351 8H168.443V11.1304H165.351V8Z" fill="black"/>
<path d="M171.536 8H174.629V11.1304H171.536V8Z" fill="black"/>
<path d="M15.4639 8H18.5567V11.1304H15.4639V8Z" fill="black"/>
<path d="M9.27834 11.1304H12.3711V14.2607H9.27834V11.1304Z" fill="black"/>
<path d="M6.18556 14.2607H9.27834V17.3911H6.18556V14.2607Z" fill="black"/>
<path d="M3.09278 17.3911H6.18556V20.5215H5.94845H3.09278V17.3911Z" fill="black"/>
<path d="M0 20.5215H3.09278V23.6518H0V20.5215Z" fill="black"/>
<path d="M0 23.6518H3.09278V26.7822H0V23.6518Z" fill="black"/>
<path d="M0 26.7822H3.09278V29.9126H0V26.7822Z" fill="black"/>
<path d="M0 29.9126H3.09278V26.9349H0V29.9126Z" fill="black"/>
<path d="M12.3711 8H15.4639V11.1304H12.3711V8Z" fill="black"/>
<path d="M18.5567 8H21.6495V11.1304H18.5567V8Z" fill="black"/>
<path d="M21.6495 8H162.258V11.1304H21.6495V8Z" fill="black"/>
<path d="M0 26.9349H3.09278V30.0653H0V26.9349Z" fill="black"/>
<path d="M0 30.0653H3.09278V33.1956H0V30.0653Z" fill="black"/>
<path d="M0 33.1956H3.09278V36.326H0V33.1956Z" fill="black"/>
<path d="M0 36.326H3.09278V39.4564H0V36.326Z" fill="black"/>
<path d="M3.09278 39.4564H6.18556V42.5867H3.09278V39.4564Z" fill="black"/>
<path d="M6.18556 42.5867H9.27834V45.7171H6.18556V42.5867Z" fill="black"/>
<path d="M9.27834 45.7171H12.3711V48.8475H9.27834V45.7171Z" fill="black"/>
<path d="M12.3711 48.8475H15.4639V51.9778H12.3711V48.8475Z" fill="black"/>
<path d="M15.4639 48.8475H18.5567V51.9778H15.4639V48.8475Z" fill="black"/>
<path d="M183.907 26.9349H187V30.0653H183.907V26.9349Z" fill="black"/>
<path d="M183.907 30.0653H187V33.1956H183.907V30.0653Z" fill="black"/>
<path d="M183.907 33.1956H187V36.326H183.907V33.1956Z" fill="black"/>
<path d="M183.907 36.326H187V39.4564H183.907V36.326Z" fill="black"/>
<path d="M180.814 39.4564H183.907V42.5867H180.814V39.4564Z" fill="black"/>
<path d="M177.722 42.5867H180.814V45.7171H177.722V42.5867Z" fill="black"/>
<path d="M174.629 42.5867V45.7171L177.722 45.7171V48.8475H174.629V42.5867Z" fill="black"/>
<path d="M171.536 48.8475H174.629V51.9778H171.536V48.8475Z" fill="black"/>
<path d="M168.443 48.8475H171.536V51.9778H168.443V48.8475Z" fill="black"/>
<path d="M18.5567 48.8475V51.9778H21.764V48.8475H18.5567Z" fill="black"/>
<path d="M171.536 11.1304H168.443H165.351H162.258H21.6495H18.5567H15.4639H12.3711V14.2607V17.3911H177.722V14.2607H174.629V11.1304H171.536Z" fill="#FFFFC0"/>
<path d="M3.09278 20.5215V23.6518V26.7822V29.9126V26.9349V30.0653V33.1956V36.326V39.4564H6.18556V42.5867H9.27834V36.326V20.5215H6.18556H5.94845H3.09278Z" fill="#E2DE41"/>
<path d="M9.27834 17.3911H6.18556V20.5215H9.27834V17.3911Z" fill="white"/>
<path d="M12.3711 14.2607H9.27834V17.3911H12.3711V14.2607Z" fill="white"/>
<path d="M9.27834 42.5867V45.7171H12.3711V48.8475H15.4639H18.5567H21.764H160.883H162.372H162.487H163.976H165.351H165.58H168.443H171.536H174.629V42.5867H18.5567H15.0867H9.27834Z" fill="#E2DE41"/>
<path d="M9.27834 36.326V42.5867H15.0867V36.326H9.27834Z" fill="#E2DE41"/>
<path d="M180.814 17.3911H177.722H12.3711H9.27834V20.5215V36.326H15.0867V42.5867H18.5567H174.629V45.7171L177.722 45.7171V42.5867H180.814V39.4564H183.907V36.326V33.1956V30.0653V26.9349V29.9126V26.7822V23.6518V20.5215H180.814V17.3911Z" fill="#FFFE84"/>
<path fill-rule="evenodd" clip-rule="evenodd" d="M160.883 48.8475H21.764V51.9778H160.883V48.8475ZM162.372 48.8475V51.9778H162.487V48.8475H162.372ZM165.351 51.9778H163.976V48.8475H165.351V51.9778ZM165.58 51.9778H168.443V48.8475H165.58V51.9778Z" fill="black"/>
<path d="M163.976 48.8475H162.487V51.9778H163.976V48.8475Z" fill="black"/>
<path d="M162.372 48.8475H160.883V51.9778H162.372V48.8475Z" fill="black"/>
<path d="M165.58 48.8475H165.351V51.9778H165.58V48.8475Z" fill="black"/>
</g>
<defs>
<filter id="filter0_f_102_2600" x="3.25058" y="0.885342" width="181.501" height="72.8786" filterUnits="userSpaceOnUse" color-interpolation-filters="sRGB">
<feFlood flood-opacity="0" result="BackgroundImageFix"/>
<feBlend mode="normal" in="SourceGraphic" in2="BackgroundImageFix" result="shape"/>
<feGaussianBlur stdDeviation="9.86959" result="effect1_foregroundBlur_102_2600"/>
</filter>
</defs>
</svg>
