<svg width="18" height="18" viewBox="0 0 18 18" fill="none" xmlns="http://www.w3.org/2000/svg">
<path d="M12.2 2.97441V1.89596C12.2 1.61252 11.9649 1.37747 11.6815 1.37747C11.398 1.37747 11.163 1.61252 11.163 1.89596V2.93293H6.66942V1.89596C6.66942 1.61252 6.43437 1.37747 6.15093 1.37747C5.86749 1.37747 5.63244 1.61252 5.63244 1.89596V2.97441C3.76589 3.14724 2.86026 4.26026 2.722 5.91251C2.70817 6.11299 2.87409 6.27891 3.06766 6.27891H14.7647C14.9652 6.27891 15.1311 6.10608 15.1104 5.91251C14.9721 4.26026 14.0665 3.14724 12.2 2.97441Z" fill="#292D32"/>
<path d="M14.4462 7.31583H3.38516C3.00494 7.31583 2.69385 7.62692 2.69385 8.00714V12.2657C2.69385 14.3396 3.73082 15.7222 6.15043 15.7222H11.681C14.1006 15.7222 15.1376 14.3396 15.1376 12.2657V8.00714C15.1376 7.62692 14.8265 7.31583 14.4462 7.31583ZM6.98693 13.1021C6.95236 13.1298 6.91779 13.1644 6.88323 13.1851C6.84175 13.2128 6.80027 13.2335 6.75879 13.2473C6.71731 13.2681 6.67583 13.2819 6.63435 13.2888C6.58596 13.2957 6.54448 13.3026 6.49609 13.3026C6.40622 13.3026 6.31635 13.2819 6.23339 13.2473C6.14352 13.2128 6.07439 13.1644 6.00526 13.1021C5.88082 12.9708 5.80477 12.7911 5.80477 12.6113C5.80477 12.4316 5.88082 12.2518 6.00526 12.1205C6.07439 12.0583 6.14352 12.0099 6.23339 11.9753C6.35783 11.92 6.49609 11.9062 6.63435 11.9338C6.67583 11.9407 6.71731 11.9546 6.75879 11.9753C6.80027 11.9891 6.84175 12.0099 6.88323 12.0375C6.91779 12.0652 6.95236 12.0928 6.98693 12.1205C7.11136 12.2518 7.18741 12.4316 7.18741 12.6113C7.18741 12.7911 7.11136 12.9708 6.98693 13.1021ZM6.98693 10.6825C6.85558 10.807 6.67583 10.883 6.49609 10.883C6.31635 10.883 6.13661 10.807 6.00526 10.6825C5.88082 10.5512 5.80477 10.3714 5.80477 10.1917C5.80477 10.012 5.88082 9.83222 6.00526 9.70087C6.19882 9.5073 6.503 9.44508 6.75879 9.55569C6.84866 9.59026 6.92471 9.63865 6.98693 9.70087C7.11136 9.83222 7.18741 10.012 7.18741 10.1917C7.18741 10.3714 7.11136 10.5512 6.98693 10.6825ZM9.40653 13.1021C9.27518 13.2266 9.09544 13.3026 8.9157 13.3026C8.73596 13.3026 8.55621 13.2266 8.42486 13.1021C8.30043 12.9708 8.22438 12.7911 8.22438 12.6113C8.22438 12.4316 8.30043 12.2518 8.42486 12.1205C8.68065 11.8647 9.15075 11.8647 9.40653 12.1205C9.53097 12.2518 9.60702 12.4316 9.60702 12.6113C9.60702 12.7911 9.53097 12.9708 9.40653 13.1021ZM9.40653 10.6825C9.37197 10.7102 9.3374 10.7378 9.30284 10.7655C9.26136 10.7931 9.21988 10.8139 9.1784 10.8277C9.13692 10.8485 9.09544 10.8623 9.05396 10.8692C9.00557 10.8761 8.96409 10.883 8.9157 10.883C8.73596 10.883 8.55621 10.807 8.42486 10.6825C8.30043 10.5512 8.22438 10.3714 8.22438 10.1917C8.22438 10.012 8.30043 9.83222 8.42486 9.70087C8.48708 9.63865 8.56313 9.59026 8.653 9.55569C8.90879 9.44508 9.21297 9.5073 9.40653 9.70087C9.53097 9.83222 9.60702 10.012 9.60702 10.1917C9.60702 10.3714 9.53097 10.5512 9.40653 10.6825ZM11.8261 13.1021C11.6948 13.2266 11.5151 13.3026 11.3353 13.3026C11.1556 13.3026 10.9758 13.2266 10.8445 13.1021C10.72 12.9708 10.644 12.7911 10.644 12.6113C10.644 12.4316 10.72 12.2518 10.8445 12.1205C11.1003 11.8647 11.5704 11.8647 11.8261 12.1205C11.9506 12.2518 12.0266 12.4316 12.0266 12.6113C12.0266 12.7911 11.9506 12.9708 11.8261 13.1021ZM11.8261 10.6825C11.7916 10.7102 11.757 10.7378 11.7224 10.7655C11.681 10.7931 11.6395 10.8139 11.598 10.8277C11.5565 10.8485 11.5151 10.8623 11.4736 10.8692C11.4252 10.8761 11.3768 10.883 11.3353 10.883C11.1556 10.883 10.9758 10.807 10.8445 10.6825C10.72 10.5512 10.644 10.3714 10.644 10.1917C10.644 10.012 10.72 9.83222 10.8445 9.70087C10.9136 9.63865 10.9827 9.59026 11.0726 9.55569C11.197 9.50039 11.3353 9.48656 11.4736 9.51421C11.5151 9.52113 11.5565 9.53495 11.598 9.55569C11.6395 9.56952 11.681 9.59026 11.7224 9.61791C11.757 9.64556 11.7916 9.67322 11.8261 9.70087C11.9506 9.83222 12.0266 10.012 12.0266 10.1917C12.0266 10.3714 11.9506 10.5512 11.8261 10.6825Z" fill="#292D32"/>
</svg>
