<svg width="443" height="43" viewBox="0 0 443 43" fill="none" xmlns="http://www.w3.org/2000/svg">
<g opacity="0.5">
<path d="M424.827 0H427.789V2.99722H424.827V0Z" fill="black"/>
<path d="M430.75 2.99722H433.711V5.99443H430.75V2.99722Z" fill="black"/>
<path d="M433.711 5.99443H436.672V8.99165H433.711V5.99443Z" fill="black"/>
<path d="M436.672 8.99165H439.633V11.9889H436.672V8.99165Z" fill="black"/>
<path d="M439.633 11.9889H442.595V14.9861H439.633V11.9889Z" fill="black"/>
<path d="M439.633 14.9861H442.595V17.9833H439.633V14.9861Z" fill="black"/>
<path d="M439.633 17.9833H442.595V20.9805H439.633V17.9833Z" fill="black"/>
<path d="M439.633 20.9805H442.595V18.1295H439.633V20.9805Z" fill="black"/>
<path d="M418.905 0H421.866V2.99722H418.905V0Z" fill="black"/>
<path d="M421.866 0H424.827V2.99722H421.866V0Z" fill="black"/>
<path d="M427.789 0H430.75V2.99722H427.789V0Z" fill="black"/>
<path d="M14.8061 0H17.7674V2.99722H14.8061V0Z" fill="black"/>
<path d="M8.88369 2.99722H11.8449V5.99443H8.88369V2.99722Z" fill="black"/>
<path d="M5.92246 5.99443H8.88369V8.99165H5.92246V5.99443Z" fill="black"/>
<path d="M2.96123 8.99165H5.92246V11.9889H5.69543H2.96123V8.99165Z" fill="black"/>
<path d="M0 11.9889H2.96123V14.9861H0V11.9889Z" fill="black"/>
<path d="M0 14.9861H2.96123V17.9833H0V14.9861Z" fill="black"/>
<path d="M0 17.9833H2.96123V20.9805H0V17.9833Z" fill="black"/>
<path d="M0 20.9805H2.96123V18.1295H0V20.9805Z" fill="black"/>
<path d="M11.8449 0H14.8061V2.99722H11.8449V0Z" fill="black"/>
<path d="M17.7674 0H20.7286V2.99722H17.7674V0Z" fill="black"/>
<path d="M20.7286 0H418.905V2.99722L20.7286 2.99722V0Z" fill="black"/>
<path d="M0 18.1295H2.96123V21.1267H0V18.1295Z" fill="black"/>
<path d="M0 21.1267H2.96123V24.1239H0V21.1267Z" fill="black"/>
<path d="M0 24.1239H2.96123V27.1212H0V24.1239Z" fill="black"/>
<path d="M0 27.1212H2.96123V30.1184H0V27.1212Z" fill="black"/>
<path d="M2.96123 30.1184H5.92246V33.1156H2.96123V30.1184Z" fill="black"/>
<path d="M5.92246 33.1156H8.88369V36.1128H5.92246V33.1156Z" fill="black"/>
<path d="M8.88369 36.1128H11.8449V39.11H8.88369V36.1128Z" fill="black"/>
<path d="M11.8449 39.11H14.8061V42.1072H11.8449V39.11Z" fill="black"/>
<path d="M14.8061 39.11H17.7674V42.1072H14.8061V39.11Z" fill="black"/>
<path d="M439.633 18.1295H442.595V21.1267H439.633V18.1295Z" fill="black"/>
<path d="M439.633 21.1267H442.595V24.1239H439.633V21.1267Z" fill="black"/>
<path d="M439.633 24.1239H442.595V27.1212H439.633V24.1239Z" fill="black"/>
<path d="M439.633 27.1212H442.595V30.1184H439.633V27.1212Z" fill="black"/>
<path d="M436.672 30.1184H439.633V33.1156H436.672V30.1184Z" fill="black"/>
<path d="M433.711 33.1156H436.672V36.1128H433.711V33.1156Z" fill="black"/>
<path d="M430.75 33.1156L433.711 36.1128V39.11H430.75V33.1156Z" fill="black"/>
<path d="M427.789 39.11H430.75V42.1072H427.789V39.11Z" fill="black"/>
<path d="M424.827 39.11H427.789V42.1072H424.827V39.11Z" fill="black"/>
<path d="M17.7674 39.11V42.1072H20.8383V39.11H17.7674Z" fill="black"/>
<path fill-rule="evenodd" clip-rule="evenodd" d="M417.589 39.11H20.8383V42.1072H417.589V39.11ZM419.015 39.11V42.1072H419.124V39.11H419.015ZM421.866 42.1072H420.55V39.11H421.866V42.1072ZM422.085 42.1072H424.827V39.11H422.085V42.1072Z" fill="black"/>
<path d="M420.55 39.11H419.124V42.1072H420.55V39.11Z" fill="black"/>
<path d="M419.015 39.11H417.589V42.1072H419.015V39.11Z" fill="black"/>
<path d="M422.085 39.11H421.866V42.1072H422.085V39.11Z" fill="black"/>
</g>
</svg>
