<svg width="744" height="30" viewBox="0 0 744 30" fill="none" xmlns="http://www.w3.org/2000/svg">
<path fill-rule="evenodd" clip-rule="evenodd" d="M409.853 23.0792L411.849 21.072H409.166H406.482L404.486 23.0792L402.49 25.0864H405.173H407.857L409.853 23.0792ZM402.048 23.1123C403.129 22.0264 404.014 21.1232 404.014 21.1051C404.014 21.0869 402.811 21.072 401.341 21.072H398.668L396.704 23.047C395.623 24.1333 394.739 25.0365 394.739 25.0542C394.739 25.0719 395.942 25.0864 397.411 25.0864H400.083L402.048 23.1123ZM394.138 23.0792L396.135 21.072H393.43H390.725L388.76 23.047C387.68 24.1333 386.796 25.0365 386.796 25.0542C386.796 25.0719 387.999 25.0864 389.469 25.0864L392.142 25.0864L394.138 23.0792ZM386.421 23.1114C387.501 22.0252 388.385 21.1219 388.385 21.1042C388.385 21.0865 387.182 21.072 385.712 21.072H383.039L381.043 23.0792L379.047 25.0864H381.752H384.457L386.421 23.1114ZM377.286 24.2194C377.758 23.7632 378.531 23.019 379.002 22.5656C379.474 22.1121 380.324 21.2938 380.891 20.7472C381.459 20.2005 382.06 19.6226 382.227 19.463L382.531 19.1728L397.201 19.1728H411.871V18.3166V17.4605L400.89 17.4317C394.851 17.4159 388.097 17.403 385.882 17.403H381.854L379.486 19.68C378.183 20.9323 376.808 22.2562 376.429 22.6219L375.74 23.2867L369.321 23.2585C365.791 23.243 359.212 23.2202 354.701 23.2077C350.191 23.1953 316.604 22.0873 315.417 22.0732L313.258 22.0474L313.074 21.7828C312.972 21.6372 312.693 21.2365 312.453 20.8923C311.838 20.0109 308.884 15.7448 308.122 14.6373L307.486 13.7133L303.754 13.7416C301.702 13.7572 297.504 13.77 294.426 13.77H288.83V14.6538V15.5377L297.709 15.5101L306.587 15.4824L307.318 16.5362C308.236 17.8588 309.468 19.6361 311.024 21.8851C311.689 22.8466 312.267 23.6748 312.307 23.7256L312.381 23.8179L355.496 24.9525C363.301 24.979 371.203 25.0116 373.057 25.0248L376.427 25.0489L377.286 24.2194ZM278.656 17.5137C278.786 17.3895 279.25 16.9577 279.685 16.5541C280.121 16.1505 280.759 15.5581 281.103 15.2376C282.046 14.3606 283.793 12.7402 284.096 12.4617L284.364 12.2159L307.11 12.2267L358.78 13.3238L358.792 14.7591L358.803 16.1943H361.894H364.985V15.3244V14.4545L378.048 14.4849C404.535 14.5466 529.484 14.5951 535.175 14.5962L578.439 14.7736V13.9605V13.1473L576.432 13.1189C575.328 13.1033 535.311 12.9012 533.235 12.8852L529.459 12.8563L529.022 12.4426C528.782 12.215 527.463 10.9459 526.09 9.6224L523.594 7.21592L414.775 7.21592H405.956L403.001 9.95693L400.047 12.6979L382.516 12.6979L364.985 12.6979V11.3598V10.0217H361.893H358.802V10.7987V11.5756H354.734C349.164 11.5756 95.493 10.8775 83.5147 10.8443L74.0002 10.9093V11.7459V12.5825L83.1712 12.5456L106.186 12.0943L106.551 12.4503C106.751 12.6461 107.804 13.6607 108.891 14.705C109.977 15.7494 111.129 16.8597 111.451 17.1725L112.037 17.7412L269.601 17.7403L278.418 17.7394L278.656 17.5137ZM385.315 11.4003C392.588 11.3343 398.641 11.2787 398.765 11.2768L398.99 11.2735V10.4102V9.54686L397.949 9.54737C397.376 9.54768 391.43 9.59602 384.735 9.65477C378.041 9.71352 372.119 9.76173 371.575 9.76186L370.588 9.76208L370.494 9.6221C370.397 9.47706 369.327 7.89491 367.86 5.72671C367.394 5.03822 366.71 4.02815 366.339 3.48211C365.967 2.93607 365.479 2.21248 365.253 1.8742L364.842 1.25909L356.401 1.25796C351.759 1.25736 318.852 0.153185 318.628 0.131905C318.404 0.110624 314.293 0.0792871 309.493 0.0622368L300.766 0.0312862L300.519 0.262697C300.171 0.589719 299.132 1.58723 295.472 5.11091L294.624 5.92674L279.995 5.90947L265.366 5.89225L265.354 6.76635L265.342 7.64045L280.364 7.64045H295.386L295.468 7.5476C295.513 7.49654 296.612 6.43463 297.911 5.18783C299.21 3.94104 300.534 2.66378 300.852 2.34949L301.432 1.77806L307.808 1.79693C311.315 1.80733 315.334 1.83474 316.739 1.85783C318.144 1.88093 351.748 2.98601 356.062 2.98592L363.906 2.9857L364.496 3.8598C364.82 4.34054 365.166 4.85045 365.264 4.9929C365.361 5.13534 365.69 5.62096 365.994 6.07203C366.298 6.52311 367.119 7.73714 367.819 8.76988C368.519 9.80261 369.225 10.8467 369.388 11.09L369.685 11.5325L370.888 11.5265C371.549 11.5232 378.042 11.4664 385.315 11.4003ZM535.55 8.81067C537.345 8.79496 569.734 8.95571 570.343 8.95234L571.45 8.94625L571.438 8.08152L571.426 7.21678L569 7.22343C565.147 7.23401 529.269 7.10598 529.246 7.12976C529.234 7.14172 529.235 7.53509 529.249 8.00386L529.273 8.85621L530.78 8.84771C531.609 8.84304 533.756 8.82634 535.55 8.81067ZM386.582 5.16556V3.1152H384.564H382.546V5.16556V7.21592H384.564H386.582V5.16556ZM378.467 5.16599V3.1152H376.427H374.387L374.398 5.15477L374.409 7.19434L376.438 7.20556L378.467 7.21678V5.16599ZM296.129 2.00736L298.126 0.000165939H295.421H292.716L290.751 1.97516C289.671 3.06142 288.787 3.96465 288.787 3.98235C288.787 4.00005 289.99 4.01455 291.46 4.01455H294.133L296.129 2.00736ZM288.401 2.00736L290.397 0.000165939H287.714H285.03L283.034 2.00736L281.038 4.01455H283.721H286.405L288.401 2.00736ZM280.501 2.00736L282.497 0.000165939H279.792H277.087L275.091 2.00736L273.094 4.01455L275.799 4.01455H278.504L280.501 2.00736ZM272.686 2.00736L274.682 0.000165939L271.999 0.000165939H269.315L267.319 2.00736L265.323 4.01455H268.007H270.69L272.686 2.00736Z" fill="#1D1C1C"/>
<path d="M61.2109 23H243.628L249.87 28.6H58.103L61.2109 23Z" fill="#1D1C1C"/>
<path d="M553.626 23H627.887L631.767 28.6H549.5L553.626 23Z" fill="#1D1C1C"/>
<path d="M724.562 25.2109L717.699 28.6H724.562V25.2109Z" fill="#1D1C1C"/>
</svg>
