<svg width="29" height="30" viewBox="0 0 29 30" fill="none" xmlns="http://www.w3.org/2000/svg">
<path d="M14.5489 10.2481C11.9323 10.2481 9.79697 12.3834 9.79697 15C9.79697 17.6166 11.9323 19.7519 14.5489 19.7519C17.1655 19.7519 19.3008 17.6166 19.3008 15C19.3008 12.3834 17.1655 10.2481 14.5489 10.2481ZM28.8011 15C28.8011 13.0322 28.819 11.0822 28.7085 9.11802C28.5979 6.83652 28.0775 4.81169 26.4091 3.14334C24.7372 1.47143 22.716 0.954531 20.4345 0.844021C18.4667 0.733511 16.5167 0.751335 14.5525 0.751335C12.5847 0.751335 10.6347 0.733511 8.67048 0.844021C6.38898 0.954531 4.36415 1.475 2.6958 3.14334C1.02389 4.81525 0.506991 6.83652 0.396481 9.11802C0.28597 11.0858 0.303795 13.0358 0.303795 15C0.303795 16.9642 0.28597 18.9178 0.396481 20.882C0.506991 23.1635 1.02746 25.1883 2.6958 26.8567C4.36771 28.5286 6.38898 29.0455 8.67048 29.156C10.6383 29.2665 12.5882 29.2487 14.5525 29.2487C16.5203 29.2487 18.4702 29.2665 20.4345 29.156C22.716 29.0455 24.7408 28.525 26.4091 26.8567C28.081 25.1848 28.5979 23.1635 28.7085 20.882C28.8225 18.9178 28.8011 16.9678 28.8011 15V15ZM14.5489 22.3115C10.5028 22.3115 7.23741 19.0461 7.23741 15C7.23741 10.9539 10.5028 7.68852 14.5489 7.68852C18.595 7.68852 21.8604 10.9539 21.8604 15C21.8604 19.0461 18.595 22.3115 14.5489 22.3115ZM22.1598 9.09663C21.2152 9.09663 20.4523 8.33375 20.4523 7.38907C20.4523 6.44439 21.2152 5.68151 22.1598 5.68151C23.1045 5.68151 23.8674 6.44439 23.8674 7.38907C23.8677 7.61339 23.8237 7.83556 23.738 8.04286C23.6523 8.25016 23.5265 8.43851 23.3679 8.59713C23.2093 8.75574 23.0209 8.88151 22.8136 8.96722C22.6063 9.05294 22.3842 9.09691 22.1598 9.09663V9.09663Z" fill="#2C2C2C"/>
</svg>
