<svg width="29" height="24" viewBox="0 0 29 24" fill="none" xmlns="http://www.w3.org/2000/svg">
<path d="M28.8365 3.30496C27.7884 3.76198 26.6625 4.07079 25.4789 4.21036C26.7002 3.49122 27.6138 2.35937 28.0495 1.02601C26.902 1.69672 25.6462 2.16882 24.3367 2.42179C23.456 1.49646 22.2895 0.883133 21.0184 0.677037C19.7472 0.470941 18.4425 0.683605 17.3067 1.28201C16.171 1.88042 15.2677 2.83109 14.7373 3.98643C14.2068 5.14176 14.0788 6.43712 14.3731 7.6714C12.0481 7.55652 9.77365 6.96184 7.69733 5.92594C5.62102 4.89005 3.78924 3.43609 2.32089 1.65844C1.81882 2.51073 1.53013 3.49889 1.53013 4.55128C1.52957 5.49867 1.76664 6.43155 2.22032 7.26716C2.674 8.10276 3.33025 8.81524 4.13085 9.34139C3.20237 9.31232 2.29437 9.06543 1.48243 8.62127V8.69538C1.48234 10.0241 1.9494 11.312 2.80436 12.3405C3.65932 13.3689 4.84953 14.0746 6.17302 14.3378C5.3117 14.5672 4.40867 14.601 3.53213 14.4366C3.90554 15.5799 4.63291 16.5797 5.61242 17.296C6.59192 18.0123 7.77452 18.4092 8.99465 18.4312C6.9234 20.0313 4.36543 20.8993 1.73221 20.8955C1.26576 20.8956 0.799712 20.8688 0.336456 20.8152C3.00932 22.5064 6.12073 23.4039 9.2984 23.4005C20.0553 23.4005 25.9357 14.633 25.9357 7.02909C25.9357 6.78205 25.9295 6.53254 25.9182 6.2855C27.062 5.47147 28.0494 4.46345 28.8339 3.30867L28.8365 3.30496V3.30496Z" fill="#2C2C2C"/>
</svg>
