<svg width="30" height="22" viewBox="0 0 30 22" fill="none" xmlns="http://www.w3.org/2000/svg">
<path d="M24.6888 2.08526C22.872 1.26594 20.9245 0.660355 18.888 0.316003C18.8699 0.312521 18.8511 0.314765 18.8343 0.322424C18.8175 0.330083 18.8035 0.342777 18.7942 0.35875C18.5449 0.796909 18.267 1.36806 18.0723 1.81928C15.9124 1.49658 13.7165 1.49658 11.5566 1.81928C11.3397 1.31921 11.0951 0.831611 10.824 0.35875C10.8148 0.342581 10.8009 0.329599 10.7841 0.321537C10.7673 0.313474 10.7485 0.310716 10.7302 0.313628C8.69484 0.657981 6.7474 1.26357 4.92939 2.08407C4.91375 2.09063 4.90049 2.10182 4.89139 2.11613C1.19599 7.54859 0.183086 12.8469 0.680634 18.0786C0.682018 18.0915 0.685996 18.1039 0.692324 18.1151C0.698653 18.1263 0.7072 18.1361 0.717445 18.144C2.87435 19.7142 5.28009 20.9104 7.83393 21.6825C7.85173 21.688 7.87077 21.6879 7.88857 21.6824C7.90636 21.6769 7.92208 21.6662 7.93367 21.6516C8.48323 20.9167 8.97021 20.137 9.38951 19.3207C9.39533 19.3095 9.39868 19.2973 9.39934 19.2847C9.4 19.2721 9.39796 19.2595 9.39334 19.2478C9.38872 19.2361 9.38165 19.2255 9.37258 19.2168C9.36352 19.2081 9.35269 19.2014 9.34082 19.1972C8.57372 18.9083 7.83047 18.5597 7.11789 18.1546C7.10508 18.1473 7.09429 18.137 7.08648 18.1245C7.07868 18.1119 7.0741 18.0977 7.07316 18.083C7.07222 18.0683 7.07494 18.0536 7.08109 18.0402C7.08724 18.0268 7.09662 18.0151 7.10839 18.0062C7.25801 17.8958 7.40763 17.7806 7.55012 17.6654C7.56295 17.6551 7.5784 17.6485 7.59475 17.6464C7.61111 17.6443 7.62772 17.6468 7.64274 17.6536C12.3059 19.7482 17.3562 19.7482 21.9648 17.6536C21.9798 17.6464 21.9966 17.6436 22.0132 17.6454C22.0298 17.6473 22.0455 17.6538 22.0586 17.6642C22.2011 17.7806 22.3495 17.8958 22.5003 18.0062C22.5122 18.0149 22.5217 18.0264 22.5281 18.0397C22.5344 18.053 22.5374 18.0676 22.5367 18.0823C22.536 18.0971 22.5316 18.1114 22.524 18.124C22.5164 18.1366 22.5058 18.1471 22.4932 18.1546C21.7831 18.5631 21.0445 18.9087 20.2691 19.196C20.2572 19.2003 20.2463 19.2071 20.2372 19.216C20.2282 19.2248 20.2211 19.2355 20.2165 19.2473C20.2119 19.2591 20.2099 19.2718 20.2105 19.2844C20.2112 19.2971 20.2146 19.3094 20.2204 19.3207C20.6479 20.1365 21.1371 20.913 21.675 21.6504C21.6862 21.6655 21.7018 21.6769 21.7196 21.6828C21.7375 21.6888 21.7567 21.6891 21.7748 21.6837C24.333 20.9138 26.7427 19.717 28.9019 18.144C28.9125 18.1366 28.9213 18.1271 28.9279 18.116C28.9344 18.1049 28.9385 18.0926 28.9399 18.0798C29.5337 12.0311 27.9448 6.77558 24.7256 2.11851C24.7177 2.10338 24.7047 2.09158 24.6888 2.08526ZM10.0865 14.8928C8.68297 14.8928 7.52519 13.6234 7.52519 12.0667C7.52519 10.5088 8.6604 9.24067 10.0865 9.24067C11.5234 9.24067 12.6705 10.5195 12.6479 12.0667C12.6479 13.6246 11.5127 14.8928 10.0865 14.8928V14.8928ZM19.5566 14.8928C18.1518 14.8928 16.9952 13.6234 16.9952 12.0667C16.9952 10.5088 18.1293 9.24067 19.5566 9.24067C20.9934 9.24067 22.1405 10.5195 22.118 12.0667C22.118 13.6246 20.9946 14.8928 19.5566 14.8928V14.8928Z" fill="#2C2C2C"/>
</svg>
