<svg width="29" height="30" viewBox="0 0 29 30" fill="none" xmlns="http://www.w3.org/2000/svg">
<path d="M14.3976 0.75C13.2426 0.75 11.5489 1.23177 11.5489 1.65476V4.16867C12.4939 3.97252 13.4549 3.86371 14.4199 3.84364C15.3854 3.86634 16.3473 3.97031 17.2953 4.15443V1.66812C17.2953 1.23266 15.5464 0.75 14.3967 0.75H14.3976ZM14.4208 5.24441C11.995 5.24441 8.40535 6.24179 8.40535 6.663V9.74328C10.234 8.47262 12.2427 7.48325 14.3647 6.80815C14.3789 6.7939 17.6907 7.69866 20.5519 9.77177L20.5564 9.77623V6.663C20.5564 6.22219 16.8456 5.24441 14.4199 5.24441H14.4208ZM14.4537 8.3149C13.5445 8.54643 12.654 8.97388 11.824 9.36837C10.0158 10.2179 8.33952 11.3237 6.84696 12.6517C8.45255 14.2893 9.41163 16.3446 10.002 18.2548L10.0439 18.3893L10.0902 18.4365L10.0296 18.3893C10.0154 18.3759 8.10525 16.4186 5.3126 16.4186C3.83792 16.4186 2.1317 16.9609 0.336426 18.5941C0.507404 19.2112 0.716674 19.7909 0.962456 20.3751V20.3938L0.990952 20.4499C3.3704 25.8811 8.94945 29.42 14.8767 29.2437C20.6891 29.0683 25.976 25.3112 28.091 19.912C28.2077 19.6199 28.3092 19.3136 28.4151 19.0215C26.4124 17.5326 23.2716 15.6768 22.0613 15.9145V15.9101C21.1379 16.0855 20.0568 17.4124 18.6703 18.7383C19.2269 16.7676 20.2242 14.5699 22.0329 12.6677C21.5627 12.2389 21.0704 11.835 20.5582 11.4575V11.4433C18.7495 10.0977 16.6435 8.94271 14.4555 8.31222L14.4537 8.3149ZM14.4395 9.37728L15.167 12.999L14.9916 16.1719L14.4671 20.8702V20.8943L14.4065 20.8845C14.3985 20.8845 14.3887 20.8747 14.3789 20.8747V20.8426L13.7947 16.1541L13.6514 13.0043L14.4395 9.37728ZM15.5054 21.0465L15.5339 21.051C15.4758 21.0703 15.4185 21.0916 15.362 21.1151C15.4083 21.0875 15.4591 21.0733 15.5054 21.0465V21.0465Z" fill="#2C2C2C"/>
</svg>
