<svg width="486" height="43" viewBox="0 0 486 43" fill="none" xmlns="http://www.w3.org/2000/svg">
<path d="M467.733 0H470.694V2.99722H467.733V0Z" fill="#1C1C1C"/>
<path d="M473.655 2.99722H476.616V5.99443H473.655V2.99722Z" fill="#1C1C1C"/>
<path d="M476.616 5.99443H479.578V8.99165H476.616V5.99443Z" fill="#1C1C1C"/>
<path d="M479.578 8.99165H482.539V11.9889H479.578V8.99165Z" fill="#1C1C1C"/>
<path d="M482.539 11.9889H485.5V14.9861H482.539V11.9889Z" fill="#1C1C1C"/>
<path d="M482.539 14.9861H485.5V17.9833H482.539V14.9861Z" fill="#1C1C1C"/>
<path d="M482.539 17.9833H485.5V20.9805H482.539V17.9833Z" fill="#1C1C1C"/>
<path d="M482.539 20.9805H485.5V18.1295H482.539V20.9805Z" fill="#1C1C1C"/>
<path d="M461.81 0H464.771V2.99722H461.81V0Z" fill="#1C1C1C"/>
<path d="M464.771 0H467.733V2.99722H464.771V0Z" fill="#1C1C1C"/>
<path d="M470.694 0H473.655V2.99722H470.694V0Z" fill="#1C1C1C"/>
<path d="M14.8061 0H17.7674V2.99722H14.8061V0Z" fill="#1C1C1C"/>
<path d="M8.88369 2.99722H11.8449V5.99443H8.88369V2.99722Z" fill="#1C1C1C"/>
<path d="M5.92246 5.99443H8.88369V8.99165H5.92246V5.99443Z" fill="#1C1C1C"/>
<path d="M2.96123 8.99165H5.92246V11.9889H5.69543H2.96123V8.99165Z" fill="#1C1C1C"/>
<path d="M0 11.9889H2.96123V14.9861H0V11.9889Z" fill="#1C1C1C"/>
<path d="M0 14.9861H2.96123V17.9833H0V14.9861Z" fill="#1C1C1C"/>
<path d="M0 17.9833H2.96123V20.9805H0V17.9833Z" fill="#1C1C1C"/>
<path d="M0 20.9805H2.96123V18.1295H0V20.9805Z" fill="#1C1C1C"/>
<path d="M11.8449 0H14.8061V2.99722H11.8449V0Z" fill="#1C1C1C"/>
<path d="M17.7674 0H20.7286V2.99722H17.7674V0Z" fill="#1C1C1C"/>
<path d="M20.7286 0L461.81 0V2.99722L20.7286 2.99722V0Z" fill="#1C1C1C"/>
<path d="M0 18.1295H2.96123V21.1267H0V18.1295Z" fill="#1C1C1C"/>
<path d="M0 21.1267H2.96123V24.1239H0V21.1267Z" fill="#1C1C1C"/>
<path d="M0 24.1239H2.96123V27.1212H0V24.1239Z" fill="#1C1C1C"/>
<path d="M0 27.1212H2.96123V30.1184H0V27.1212Z" fill="#1C1C1C"/>
<path d="M2.96123 30.1184H5.92246V33.1156H2.96123V30.1184Z" fill="#1C1C1C"/>
<path d="M5.92246 33.1156H8.88369V36.1128H5.92246V33.1156Z" fill="#1C1C1C"/>
<path d="M8.88369 36.1128H11.8449V39.11H8.88369V36.1128Z" fill="#1C1C1C"/>
<path d="M11.8449 39.11H14.8061V42.1072H11.8449V39.11Z" fill="#1C1C1C"/>
<path d="M14.8061 39.11H17.7674V42.1072H14.8061V39.11Z" fill="#1C1C1C"/>
<path d="M482.539 18.1295H485.5V21.1267H482.539V18.1295Z" fill="#1C1C1C"/>
<path d="M482.539 21.1267H485.5V24.1239H482.539V21.1267Z" fill="#1C1C1C"/>
<path d="M482.539 24.1239H485.5V27.1212H482.539V24.1239Z" fill="#1C1C1C"/>
<path d="M482.539 27.1212H485.5V30.1184H482.539V27.1212Z" fill="#1C1C1C"/>
<path d="M479.578 30.1184H482.539V33.1156H479.578V30.1184Z" fill="#1C1C1C"/>
<path d="M476.616 33.1156H479.578V36.1128H476.616V33.1156Z" fill="#1C1C1C"/>
<path d="M473.655 33.1156L476.616 36.1128V39.11H473.655V33.1156Z" fill="#1C1C1C"/>
<path d="M470.694 39.11H473.655V42.1072H470.694V39.11Z" fill="#1C1C1C"/>
<path d="M467.733 39.11H470.694V42.1072H467.733V39.11Z" fill="#1C1C1C"/>
<path d="M17.7674 39.11V42.1072H20.8383V39.11H17.7674Z" fill="#1C1C1C"/>
<path fill-rule="evenodd" clip-rule="evenodd" d="M460.494 39.11H20.8383V42.1072H460.494V39.11ZM461.92 39.11V42.1072H462.03V39.11H461.92ZM464.771 42.1072H463.455V39.11H464.771V42.1072ZM464.991 42.1072H467.733V39.11H464.991V42.1072Z" fill="#1C1C1C"/>
<path d="M463.455 39.11H462.03V42.1072H463.455V39.11Z" fill="#1C1C1C"/>
<path d="M461.92 39.11H460.494V42.1072H461.92V39.11Z" fill="#1C1C1C"/>
<path d="M464.991 39.11H464.771V42.1072H464.991V39.11Z" fill="#1C1C1C"/>
</svg>
